<svg width="19" height="19" viewBox="0 0 19 19" fill="none" xmlns="http://www.w3.org/2000/svg">
<path d="M5.21631 17.283C4.34422 16.292 3.47217 15.2614 2.91718 14.0325C2.36224 12.7244 2.20366 11.2181 2.48116 9.79107C2.75865 8.36404 3.39286 7.01627 4.30461 5.86672C4.22534 6.85773 4.5821 7.88836 5.25596 8.64153C4.85955 6.73881 5.4938 4.67752 6.76227 3.17122C8.03073 1.66491 9.77492 0.673866 11.5983 0C10.6866 0.951358 10.5677 2.45766 10.9245 3.72617C11.2812 4.99463 12.0344 6.10456 12.7083 7.25411C13.3821 8.40365 14.0164 9.59285 14.056 10.901C14.4128 10.2271 14.8092 9.5532 15.047 8.80006C15.2849 8.04689 15.4038 7.25411 15.2056 6.50094C15.9191 7.37303 16.3155 8.24508 16.5137 9.35501C16.7119 10.4649 16.6723 11.6145 16.5534 12.7244C16.3948 13.9533 16.0777 15.2217 15.4038 16.2524C14.611 17.4812 13.3425 18.3533 11.9552 18.8289C9.49742 19.265 7.07938 18.9082 5.21631 17.283Z" fill="#F3705A"/>
<path d="M8.2291 18.7497C11.4795 20.0182 14.6904 16.1731 12.9066 13.2001C12.9066 13.1605 12.8669 13.1605 12.8669 13.1209C13.0255 14.7461 12.6291 15.9353 11.8759 16.6092C12.2723 15.6578 11.9948 14.5479 11.5192 13.5966C11.0435 12.6848 10.3696 11.8524 9.85429 10.9803C9.33895 10.0686 8.94258 9.03795 9.18042 8.00732C8.22906 8.72084 7.55519 9.79112 7.2777 10.9407C7.00021 12.0902 7.15878 13.3587 7.67411 14.429C7.07952 13.993 6.64349 13.2794 6.60384 12.5263C5.96959 13.2794 5.57321 14.2704 5.61283 15.2614C5.61286 16.8074 6.84168 18.1948 8.2291 18.7497Z" fill="#FFD15C"/>
</svg>
