<svg width="433" height="99" viewBox="0 0 433 99" fill="none" xmlns="http://www.w3.org/2000/svg">
<path d="M0.398691 10.9529H31.0775V17.2062H0.398691V10.9529ZM40.7398 4.27193H44.8018C45.942 4.27193 46.9397 4.5748 47.7949 5.18054C48.6856 5.78628 49.3448 6.65925 49.7724 7.79946L81.8943 87.8103H77.8858C76.8524 87.8103 75.8369 87.5074 74.8393 86.9017C73.8416 86.2959 73.1289 85.3695 72.7014 84.1224L40.7398 4.27193ZM131.082 91.8188V98.2325H88.9653V91.8188H131.082ZM147.649 49.3816C147.649 57.0067 148.611 64.4181 150.535 71.6157C152.495 78.8133 155.345 85.6546 159.087 92.1395C159.657 93.2441 159.799 94.0814 159.514 94.6515C159.229 95.2573 158.819 95.7383 158.285 96.0946L154.063 98.6601C151.39 94.5625 149.11 90.5005 147.221 86.4741C145.368 82.4477 143.854 78.4035 142.678 74.3415C141.538 70.2795 140.701 66.1997 140.166 62.1021C139.632 57.9688 139.365 53.7286 139.365 49.3816C139.365 45.0701 139.632 40.8478 140.166 36.7145C140.701 32.5813 141.538 28.5014 142.678 24.4751C143.854 20.4131 145.368 16.3689 147.221 12.3425C149.11 8.31612 151.39 4.2363 154.063 0.10303L158.285 2.72196C158.819 3.07827 159.229 3.5593 159.514 4.16504C159.799 4.73514 159.657 5.55467 159.087 6.62362C155.345 13.1086 152.495 19.9498 150.535 27.1474C148.611 34.345 147.649 41.7564 147.649 49.3816ZM211.797 2.61506L203.566 5.39433C206.238 10.9529 212.331 27.5216 214.041 33.6146L222.379 30.7284C220.562 24.7423 214.148 7.74601 211.797 2.61506ZM259.258 9.45633L249.424 6.67707C247.286 22.7113 240.765 39.8145 232.32 50.6109C221.524 64.2934 205.597 74.5553 190.311 79.0449L197.687 86.5275C212.759 81.1828 228.579 70.1726 239.589 55.6349C248.355 44.0903 254.127 28.8043 257.334 15.5493C257.761 13.839 258.51 11.2735 259.258 9.45633ZM181.973 9.02875L173.528 12.1287C176.094 16.7252 183.47 34.7904 185.501 41.4179L193.945 38.3179C191.487 31.3698 184.752 15.0149 181.973 9.02875ZM285.394 49.3816C285.394 41.7564 284.414 34.345 282.454 27.1474C280.53 19.9498 277.697 13.1086 273.956 6.62362C273.671 6.08914 273.493 5.62593 273.422 5.23399C273.35 4.80641 273.368 4.45009 273.475 4.16504C273.582 3.84435 273.742 3.57711 273.956 3.36332C274.205 3.1139 274.473 2.90011 274.758 2.72196L278.98 0.10303C281.652 4.2363 283.915 8.31612 285.768 12.3425C287.656 16.3689 289.171 20.4131 290.311 24.4751C291.487 28.5014 292.342 32.5813 292.876 36.7145C293.411 40.8478 293.678 45.0701 293.678 49.3816C293.678 53.7286 293.411 57.9688 292.876 62.1021C292.342 66.1997 291.487 70.2795 290.311 74.3415C289.171 78.4035 287.656 82.4477 285.768 86.4741C283.915 90.5005 281.652 94.5625 278.98 98.6601L274.758 96.0946C274.473 95.9165 274.205 95.7027 273.956 95.4533C273.742 95.2395 273.582 94.9722 273.475 94.6515C273.368 94.3665 273.35 94.0102 273.422 93.5826C273.493 93.155 273.671 92.674 273.956 92.1395C277.697 85.6546 280.53 78.8133 282.454 71.6157C284.414 64.4181 285.394 57.0067 285.394 49.3816ZM344.036 91.8188V98.2325H301.92V91.8188H344.036ZM360.283 84.1224C359.82 85.3695 359.089 86.2959 358.091 86.9017C357.129 87.5074 356.132 87.8103 355.098 87.8103H351.09L383.212 7.79946C383.639 6.65925 384.281 5.78628 385.136 5.18054C386.027 4.5748 387.042 4.27193 388.182 4.27193H392.244L360.283 84.1224ZM401.881 10.9529H432.56V17.2062H401.881V10.9529Z" fill="#E9E0EC"/>
</svg>
